<svg width="24" height="24" viewBox="0 0 24 24" fill="none" xmlns="http://www.w3.org/2000/svg">
<path fill-rule="evenodd" clip-rule="evenodd" d="M18.6682 19.0711C14.7629 22.9763 8.43129 22.9763 4.52604 19.0711C4.13552 18.6805 4.13552 18.0474 4.52605 17.6568C4.91657 17.2663 5.54974 17.2663 5.94026 17.6568C9.06446 20.7811 14.1298 20.7811 17.254 17.6568C20.3782 14.5326 20.3782 9.46735 17.254 6.34315C14.1298 3.21895 9.06446 3.21895 5.94026 6.34315C5.39715 6.88626 4.9492 7.48687 4.59555 8.125H7.4104C7.96269 8.125 8.4104 8.57272 8.4104 9.125C8.4104 9.67729 7.96269 10.125 7.4104 10.125H3.39979C2.21464 10.125 1.25391 9.16427 1.25391 7.97911V3.9685C1.25391 3.41622 1.70162 2.9685 2.25391 2.9685C2.80619 2.9685 3.25391 3.41622 3.25391 3.9685V6.48398C3.61823 5.93406 4.04237 5.41261 4.52605 4.92894C8.43129 1.02369 14.7629 1.02369 18.6682 4.92893C22.5734 8.83418 22.5734 15.1658 18.6682 19.0711ZM13.1799 8.07596L11.8772 12.4639L14.6633 15.25L13.2491 16.6642L9.62104 13.0361L11.2626 7.50676L13.1799 8.07596Z" fill="currentColor"/>
</svg>

